<?xml version="1.0" encoding="UTF-8"?> <!-- Generator: Adobe Illustrator 22.1.0, SVG Export Plug-In . SVG Version: 6.00 Build 0) --> <svg xmlns="http://www.w3.org/2000/svg" xmlns:xlink="http://www.w3.org/1999/xlink" id="Capa_1" x="0px" y="0px" viewBox="0 0 601.6 158" xml:space="preserve"> <g> <path fill="#00CC99" d="M86.2,67c0,3.3-2.7,6-6,6c-1.7,0-3.2-0.7-4.2-1.8L65.8,61h14.5C83.5,61,86.2,63.7,86.2,67z M149.2,78.7 c0.2,33.3-26.8,60.3-60.1,60.3c-33.1-0.1-59.8-26.8-59.8-60c0-9.3,2.1-18,5.8-25.9L29.3,43h48c23.2,0,42,18.8,42,42v12h-1.7h-13.4 c-7.6,0-15.1,2-21.8,5.8L59,116.3C67.3,123,77.8,127,89.2,127c26.5,0,48-21.5,48-48c0-26.5-22-48.3-48.5-48c-8.2,0.1-16,2.3-22.7,6 H46.4c10.9-11.1,26-18,42.8-18C122.3,19,149,45.6,149.2,78.7z M50.5,107.3L78.8,91c6.8-3.9,14.6-6,22.5-6h5.9c0-16.6-13.4-30-30-30 H47.9h-0.2c-4.1,7.1-6.4,15.2-6.4,24C41.3,89.6,44.7,99.4,50.5,107.3z"></path> <path fill="#000000" d="M250.4,97V55h8.2v42H250.4z"></path> <path fill="#000000" d="M320.9,60.2L340.7,97h-8.6l-0.2-0.5c-1.4-1.7-12-5.7-22.2-5.7h-5l-3.3,6.2h-9L314.7,55h8.9L320.9,60.2z M309.7,83.4c8.6,0,14.1,2.2,16.8,3.6l-9.8-18.8l-8.1,15.2H309.7z"></path> <path fill="#000000" d="M461.3,97V55h8.2V97H461.3z"></path> <path fill="#000000" d="M487.5,97V55h8.6v33.7h22V97H487.5z"></path> <path fill="#000000" d="M541.1,55h8.9L572.3,97h-9l-3.3-6.2h-5c-10.2,0-20.9,4-22.2,5.7l-0.2,0.5H524l19.8-36.8L541.1,55z M556.1,83.4L548,68.2l-9.8,18.8c2.6-1.3,8.2-3.6,16.8-3.6H556.1z"></path> <path fill="#000000" d="M423.3,98.2c-11.5,0-19.9-5.3-19.9-17.3V55h8.2v25.9c0,7,4.7,9.1,11.7,9.1c7,0,11.7-2.1,11.7-9.1V55h8.2 v25.9c0,12-8.4,17.3-19.9,17.3H423.3z"></path> <path fill="#000000" d="M387.6,92.4c-4.6,3.9-10.7,5.9-17,5.9c-12.5,0-24.4-8.1-24.4-21.9c0-13.9,12.1-21.7,24.4-21.7 c6.1,0,12.1,1.7,16.6,5.1l-5.5,6.3c-3.1-2.1-7.2-3.2-11.1-3.2c-8,0-15.7,4.4-15.7,13.6c0,9.3,7.9,13.5,15.8,13.5c3,0,6-0.7,8.7-2.1 v-6.6h-4.2l-3.5-7.7h15.9V92.4z"></path> <path fill="#000000" d="M232.4,61.6V97h-9V72l-14.6,19.3L194.1,72v25h-9V61.6L181,55h10.1l17.7,23.2L226.4,55h10.1L232.4,61.6z"></path> <polygon fill="#00CC99" points="330,43 326.8,49 317.9,49 321.1,43 "></polygon> </g> </svg>
